<?xml version="1.0" encoding="UTF-8" standalone="no"?>
<!DOCTYPE svg PUBLIC "-//W3C//DTD SVG 1.1//EN"
 "http://www.w3.org/Graphics/SVG/1.1/DTD/svg11.dtd">
<!-- Generated by graphviz version 2.43.0 (0)
 -->
<!-- Title: G Pages: 1 -->
<svg width="986pt" height="515pt"
 viewBox="0.00 0.00 986.00 515.00" xmlns="http://www.w3.org/2000/svg" xmlns:xlink="http://www.w3.org/1999/xlink">
<g id="graph0" class="graph" transform="scale(1 1) rotate(0) translate(4 511)">
<title>G</title>
<polygon fill="white" stroke="transparent" points="-4,4 -4,-511 982,-511 982,4 -4,4"/>
<g id="clust1" class="cluster">
<title>cluster_root</title>
<g id="a_clust1"><a xlink:title="eventq_index=0&#10;full_system=false&#10;sim_quantum=0&#10;time_sync_enable=false&#10;time_sync_period=100000000000&#10;time_sync_spin_threshold=100000000">
<path fill="#bab6ae" stroke="#000000" d="M20,-8C20,-8 958,-8 958,-8 964,-8 970,-14 970,-20 970,-20 970,-487 970,-487 970,-493 964,-499 958,-499 958,-499 20,-499 20,-499 14,-499 8,-493 8,-487 8,-487 8,-20 8,-20 8,-14 14,-8 20,-8"/>
<text text-anchor="middle" x="489" y="-483.8" font-family="Arial" font-size="14.00" fill="#000000">root </text>
<text text-anchor="middle" x="489" y="-468.8" font-family="Arial" font-size="14.00" fill="#000000">: Root</text>
</a>
</g>
</g>
<g id="clust2" class="cluster">
<title>cluster_system</title>
<g id="a_clust2"><a xlink:title="auto_unlink_shared_backstore=false&#10;cache_line_size=64&#10;eventq_index=0&#10;exit_on_work_items=false&#10;init_param=0&#10;m5ops_base=0&#10;mem_mode=atomic&#10;mem_ranges=0:536870912&#10;memories=system.mem_ctrls.dram&#10;mmap_using_noreserve=false&#10;multi_thread=false&#10;&#10;um_work_ids=16&#10;&#13;eadfile=&#10;&#13;edirect_paths=system.redirect_paths0 system.redirect_paths1 system.redirect_paths2&#10;shadow_rom_ranges=&#10;shared_backstore=&#10;symbolfile=&#10;thermal_components=&#10;thermal_model=Null&#10;work_begin_ckpt_count=0&#10;work_begin_cpu_id_exit=&#45;1&#10;work_begin_exit_count=0&#10;work_cpus_ckpt_count=0&#10;work_end_ckpt_count=0&#10;work_end_exit_count=0&#10;work_item_id=&#45;1&#10;workload=system.workload">
<path fill="#e4e7eb" stroke="#000000" d="M28,-16C28,-16 950,-16 950,-16 956,-16 962,-22 962,-28 962,-28 962,-441 962,-441 962,-447 956,-453 950,-453 950,-453 28,-453 28,-453 22,-453 16,-447 16,-441 16,-441 16,-28 16,-28 16,-22 22,-16 28,-16"/>
<text text-anchor="middle" x="489" y="-437.8" font-family="Arial" font-size="14.00" fill="#000000">system </text>
<text text-anchor="middle" x="489" y="-422.8" font-family="Arial" font-size="14.00" fill="#000000">: System</text>
</a>
</g>
</g>
<g id="clust4" class="cluster">
<title>cluster_system_cpu</title>
<g id="a_clust4"><a xlink:title="branchPred=Null&#10;checker=Null&#10;clk_domain=system.cpu_clk_domain&#10;cpu_id=0&#10;decoder=system.cpu.decoder&#10;do_checkpoint_insts=true&#10;do_statistics_insts=true&#10;eventq_index=0&#10;function_trace=false&#10;function_trace_start=0&#10;interrupts=system.cpu.interrupts&#10;isa=system.cpu.isa&#10;max_insts_all_threads=0&#10;max_insts_any_thread=0&#10;mmu=system.cpu.mmu&#10;&#10;umThreads=1&#10;power_gating_on_idle=false&#10;power_model=&#10;power_state=system.cpu.power_state&#10;progress_interval=0&#10;pwr_gating_latency=300&#10;simpoint_start_insts=&#10;simulate_data_stalls=false&#10;simulate_inst_stalls=false&#10;socket_id=0&#10;switched_out=false&#10;syscallRetryLatency=10000&#10;system=system&#10;tracer=system.cpu.tracer&#10;width=1&#10;workload=system.cpu.workload">
<path fill="#bbc6d9" stroke="#000000" d="M36,-24C36,-24 850,-24 850,-24 856,-24 862,-30 862,-36 862,-36 862,-211 862,-211 862,-217 856,-223 850,-223 850,-223 36,-223 36,-223 30,-223 24,-217 24,-211 24,-211 24,-36 24,-36 24,-30 30,-24 36,-24"/>
<text text-anchor="middle" x="443" y="-207.8" font-family="Arial" font-size="14.00" fill="#000000">cpu </text>
<text text-anchor="middle" x="443" y="-192.8" font-family="Arial" font-size="14.00" fill="#000000">: ArmAtomicSimpleCPU</text>
</a>
</g>
</g>
<g id="clust5" class="cluster">
<title>cluster_system_cpu_mmu</title>
<g id="a_clust5"><a xlink:title="dtb=system.cpu.mmu.dtb&#10;dtb_walker=system.cpu.mmu.dtb_walker&#10;eventq_index=0&#10;itb=system.cpu.mmu.itb&#10;itb_walker=system.cpu.mmu.itb_walker&#10;&#13;elease_se=system.cpu.isa.release_se&#10;stage2_dtb=system.cpu.mmu.stage2_dtb&#10;stage2_dtb_walker=system.cpu.mmu.stage2_dtb_walker&#10;stage2_itb=system.cpu.mmu.stage2_itb&#10;stage2_itb_walker=system.cpu.mmu.stage2_itb_walker&#10;sys=system">
<path fill="#bab6ae" stroke="#000000" d="M248,-32C248,-32 842,-32 842,-32 848,-32 854,-38 854,-44 854,-44 854,-165 854,-165 854,-171 848,-177 842,-177 842,-177 248,-177 248,-177 242,-177 236,-171 236,-165 236,-165 236,-44 236,-44 236,-38 242,-32 248,-32"/>
<text text-anchor="middle" x="545" y="-161.8" font-family="Arial" font-size="14.00" fill="#000000">mmu </text>
<text text-anchor="middle" x="545" y="-146.8" font-family="Arial" font-size="14.00" fill="#000000">: ArmMMU</text>
</a>
</g>
</g>
<g id="clust11" class="cluster">
<title>cluster_system_cpu_mmu_itb_walker</title>
<g id="a_clust11"><a xlink:title="clk_domain=system.cpu_clk_domain&#10;eventq_index=0&#10;is_stage2=false&#10;&#10;um_squash_per_cycle=2&#10;power_model=&#10;power_state=system.cpu.mmu.itb_walker.power_state&#10;sys=system">
<path fill="#9f9c95" stroke="#000000" d="M735,-40C735,-40 834,-40 834,-40 840,-40 846,-46 846,-52 846,-52 846,-119 846,-119 846,-125 840,-131 834,-131 834,-131 735,-131 735,-131 729,-131 723,-125 723,-119 723,-119 723,-52 723,-52 723,-46 729,-40 735,-40"/>
<text text-anchor="middle" x="784.5" y="-115.8" font-family="Arial" font-size="14.00" fill="#000000">itb_walker </text>
<text text-anchor="middle" x="784.5" y="-100.8" font-family="Arial" font-size="14.00" fill="#000000">: ArmTableWalker</text>
</a>
</g>
</g>
<g id="clust13" class="cluster">
<title>cluster_system_cpu_mmu_dtb_walker</title>
<g id="a_clust13"><a xlink:title="clk_domain=system.cpu_clk_domain&#10;eventq_index=0&#10;is_stage2=false&#10;&#10;um_squash_per_cycle=2&#10;power_model=&#10;power_state=system.cpu.mmu.dtb_walker.power_state&#10;sys=system">
<path fill="#9f9c95" stroke="#000000" d="M604,-40C604,-40 703,-40 703,-40 709,-40 715,-46 715,-52 715,-52 715,-119 715,-119 715,-125 709,-131 703,-131 703,-131 604,-131 604,-131 598,-131 592,-125 592,-119 592,-119 592,-52 592,-52 592,-46 598,-40 604,-40"/>
<text text-anchor="middle" x="653.5" y="-115.8" font-family="Arial" font-size="14.00" fill="#000000">dtb_walker </text>
<text text-anchor="middle" x="653.5" y="-100.8" font-family="Arial" font-size="14.00" fill="#000000">: ArmTableWalker</text>
</a>
</g>
</g>
<g id="clust15" class="cluster">
<title>cluster_system_cpu_mmu_stage2_itb_walker</title>
<g id="a_clust15"><a xlink:title="clk_domain=system.cpu_clk_domain&#10;eventq_index=0&#10;is_stage2=true&#10;&#10;um_squash_per_cycle=2&#10;power_model=&#10;power_state=system.cpu.mmu.stage2_itb_walker.power_state&#10;sys=system">
<path fill="#9f9c95" stroke="#000000" d="M430,-40C430,-40 572,-40 572,-40 578,-40 584,-46 584,-52 584,-52 584,-119 584,-119 584,-125 578,-131 572,-131 572,-131 430,-131 430,-131 424,-131 418,-125 418,-119 418,-119 418,-52 418,-52 418,-46 424,-40 430,-40"/>
<text text-anchor="middle" x="501" y="-115.8" font-family="Arial" font-size="14.00" fill="#000000">stage2_itb_walker </text>
<text text-anchor="middle" x="501" y="-100.8" font-family="Arial" font-size="14.00" fill="#000000">: ArmStage2TableWalker</text>
</a>
</g>
</g>
<g id="clust17" class="cluster">
<title>cluster_system_cpu_mmu_stage2_dtb_walker</title>
<g id="a_clust17"><a xlink:title="clk_domain=system.cpu_clk_domain&#10;eventq_index=0&#10;is_stage2=true&#10;&#10;um_squash_per_cycle=2&#10;power_model=&#10;power_state=system.cpu.mmu.stage2_dtb_walker.power_state&#10;sys=system">
<path fill="#9f9c95" stroke="#000000" d="M256,-40C256,-40 398,-40 398,-40 404,-40 410,-46 410,-52 410,-52 410,-119 410,-119 410,-125 404,-131 398,-131 398,-131 256,-131 256,-131 250,-131 244,-125 244,-119 244,-119 244,-52 244,-52 244,-46 250,-40 256,-40"/>
<text text-anchor="middle" x="327" y="-115.8" font-family="Arial" font-size="14.00" fill="#000000">stage2_dtb_walker </text>
<text text-anchor="middle" x="327" y="-100.8" font-family="Arial" font-size="14.00" fill="#000000">: ArmStage2TableWalker</text>
</a>
</g>
</g>
<g id="clust30" class="cluster">
<title>cluster_system_membus</title>
<g id="a_clust30"><a xlink:title="clk_domain=system.clk_domain&#10;eventq_index=0&#10;forward_latency=4&#10;frontend_latency=3&#10;header_latency=1&#10;max_outstanding_snoops=512&#10;max_routing_table_size=512&#10;point_of_coherency=true&#10;point_of_unification=true&#10;power_model=&#10;power_state=system.membus.power_state&#10;&#13;esponse_latency=2&#10;snoop_filter=system.membus.snoop_filter&#10;snoop_response_latency=4&#10;system=system&#10;use_default_range=false&#10;width=16">
<path fill="#6f798c" stroke="#000000" d="M451,-231C451,-231 687,-231 687,-231 693,-231 699,-237 699,-243 699,-243 699,-310 699,-310 699,-316 693,-322 687,-322 687,-322 451,-322 451,-322 445,-322 439,-316 439,-310 439,-310 439,-243 439,-243 439,-237 445,-231 451,-231"/>
<text text-anchor="middle" x="569" y="-306.8" font-family="Arial" font-size="14.00" fill="#000000">membus </text>
<text text-anchor="middle" x="569" y="-291.8" font-family="Arial" font-size="14.00" fill="#000000">: SystemXBar</text>
</a>
</g>
</g>
<g id="clust33" class="cluster">
<title>cluster_system_mem_ctrls</title>
<g id="a_clust33"><a xlink:title="clk_domain=system.clk_domain&#10;command_window=10000&#10;dram=system.mem_ctrls.dram&#10;eventq_index=0&#10;mem_sched_policy=frfcfs&#10;min_reads_per_switch=16&#10;min_writes_per_switch=16&#10;power_model=&#10;power_state=system.mem_ctrls.power_state&#10;qos_policy=Null&#10;qos_priorities=1&#10;qos_priority_escalation=false&#10;qos_q_policy=fifo&#10;qos_requestors= &#160;&#160;&#160;&#160;&#160;&#160;&#160;&#160;&#160;&#160;&#160;&#160;&#160;&#160;&#10;qos_syncro_scheduler=false&#10;qos_turnaround_policy=Null&#10;static_backend_latency=10000&#10;static_frontend_latency=10000&#10;system=system&#10;write_high_thresh_perc=85&#10;write_low_thresh_perc=50">
<path fill="#bab6ae" stroke="#000000" d="M882,-40C882,-40 942,-40 942,-40 948,-40 954,-46 954,-52 954,-52 954,-119 954,-119 954,-125 948,-131 942,-131 942,-131 882,-131 882,-131 876,-131 870,-125 870,-119 870,-119 870,-52 870,-52 870,-46 876,-40 882,-40"/>
<text text-anchor="middle" x="912" y="-115.8" font-family="Arial" font-size="14.00" fill="#000000">mem_ctrls </text>
<text text-anchor="middle" x="912" y="-100.8" font-family="Arial" font-size="14.00" fill="#000000">: MemCtrl</text>
</a>
</g>
</g>
<!-- system_system_port -->
<g id="node1" class="node">
<title>system_system_port</title>
<path fill="#b6b8bc" stroke="#000000" d="M467.5,-370.5C467.5,-370.5 534.5,-370.5 534.5,-370.5 540.5,-370.5 546.5,-376.5 546.5,-382.5 546.5,-382.5 546.5,-394.5 546.5,-394.5 546.5,-400.5 540.5,-406.5 534.5,-406.5 534.5,-406.5 467.5,-406.5 467.5,-406.5 461.5,-406.5 455.5,-400.5 455.5,-394.5 455.5,-394.5 455.5,-382.5 455.5,-382.5 455.5,-376.5 461.5,-370.5 467.5,-370.5"/>
<text text-anchor="middle" x="501" y="-384.8" font-family="Arial" font-size="14.00" fill="#000000">system_port</text>
</g>
<!-- system_membus_cpu_side_ports -->
<g id="node8" class="node">
<title>system_membus_cpu_side_ports</title>
<path fill="#586070" stroke="#000000" d="M459,-239.5C459,-239.5 543,-239.5 543,-239.5 549,-239.5 555,-245.5 555,-251.5 555,-251.5 555,-263.5 555,-263.5 555,-269.5 549,-275.5 543,-275.5 543,-275.5 459,-275.5 459,-275.5 453,-275.5 447,-269.5 447,-263.5 447,-263.5 447,-251.5 447,-251.5 447,-245.5 453,-239.5 459,-239.5"/>
<text text-anchor="middle" x="501" y="-253.8" font-family="Arial" font-size="14.00" fill="#000000">cpu_side_ports</text>
</g>
<!-- system_system_port&#45;&gt;system_membus_cpu_side_ports -->
<g id="edge1" class="edge">
<title>system_system_port&#45;&gt;system_membus_cpu_side_ports</title>
<path fill="none" stroke="black" d="M501,-370.37C501,-348.78 501,-311.41 501,-285.85"/>
<polygon fill="black" stroke="black" points="504.5,-285.7 501,-275.7 497.5,-285.7 504.5,-285.7"/>
</g>
<!-- system_cpu_icache_port -->
<g id="node2" class="node">
<title>system_cpu_icache_port</title>
<path fill="#959ead" stroke="#000000" d="M154,-48.5C154,-48.5 216,-48.5 216,-48.5 222,-48.5 228,-54.5 228,-60.5 228,-60.5 228,-72.5 228,-72.5 228,-78.5 222,-84.5 216,-84.5 216,-84.5 154,-84.5 154,-84.5 148,-84.5 142,-78.5 142,-72.5 142,-72.5 142,-60.5 142,-60.5 142,-54.5 148,-48.5 154,-48.5"/>
<text text-anchor="middle" x="185" y="-62.8" font-family="Arial" font-size="14.00" fill="#000000">icache_port</text>
</g>
<!-- system_cpu_dcache_port -->
<g id="node3" class="node">
<title>system_cpu_dcache_port</title>
<path fill="#959ead" stroke="#000000" d="M44.5,-48.5C44.5,-48.5 111.5,-48.5 111.5,-48.5 117.5,-48.5 123.5,-54.5 123.5,-60.5 123.5,-60.5 123.5,-72.5 123.5,-72.5 123.5,-78.5 117.5,-84.5 111.5,-84.5 111.5,-84.5 44.5,-84.5 44.5,-84.5 38.5,-84.5 32.5,-78.5 32.5,-72.5 32.5,-72.5 32.5,-60.5 32.5,-60.5 32.5,-54.5 38.5,-48.5 44.5,-48.5"/>
<text text-anchor="middle" x="78" y="-62.8" font-family="Arial" font-size="14.00" fill="#000000">dcache_port</text>
</g>
<!-- system_cpu_mmu_itb_walker_port -->
<g id="node4" class="node">
<title>system_cpu_mmu_itb_walker_port</title>
<path fill="#7f7c77" stroke="#000000" d="M743,-48.5C743,-48.5 773,-48.5 773,-48.5 779,-48.5 785,-54.5 785,-60.5 785,-60.5 785,-72.5 785,-72.5 785,-78.5 779,-84.5 773,-84.5 773,-84.5 743,-84.5 743,-84.5 737,-84.5 731,-78.5 731,-72.5 731,-72.5 731,-60.5 731,-60.5 731,-54.5 737,-48.5 743,-48.5"/>
<text text-anchor="middle" x="758" y="-62.8" font-family="Arial" font-size="14.00" fill="#000000">port</text>
</g>
<!-- system_cpu_mmu_dtb_walker_port -->
<g id="node5" class="node">
<title>system_cpu_mmu_dtb_walker_port</title>
<path fill="#7f7c77" stroke="#000000" d="M612,-48.5C612,-48.5 642,-48.5 642,-48.5 648,-48.5 654,-54.5 654,-60.5 654,-60.5 654,-72.5 654,-72.5 654,-78.5 648,-84.5 642,-84.5 642,-84.5 612,-84.5 612,-84.5 606,-84.5 600,-78.5 600,-72.5 600,-72.5 600,-60.5 600,-60.5 600,-54.5 606,-48.5 612,-48.5"/>
<text text-anchor="middle" x="627" y="-62.8" font-family="Arial" font-size="14.00" fill="#000000">port</text>
</g>
<!-- system_cpu_mmu_stage2_itb_walker_port -->
<g id="node6" class="node">
<title>system_cpu_mmu_stage2_itb_walker_port</title>
<path fill="#7f7c77" stroke="#000000" d="M486,-48.5C486,-48.5 516,-48.5 516,-48.5 522,-48.5 528,-54.5 528,-60.5 528,-60.5 528,-72.5 528,-72.5 528,-78.5 522,-84.5 516,-84.5 516,-84.5 486,-84.5 486,-84.5 480,-84.5 474,-78.5 474,-72.5 474,-72.5 474,-60.5 474,-60.5 474,-54.5 480,-48.5 486,-48.5"/>
<text text-anchor="middle" x="501" y="-62.8" font-family="Arial" font-size="14.00" fill="#000000">port</text>
</g>
<!-- system_cpu_mmu_stage2_dtb_walker_port -->
<g id="node7" class="node">
<title>system_cpu_mmu_stage2_dtb_walker_port</title>
<path fill="#7f7c77" stroke="#000000" d="M360,-48.5C360,-48.5 390,-48.5 390,-48.5 396,-48.5 402,-54.5 402,-60.5 402,-60.5 402,-72.5 402,-72.5 402,-78.5 396,-84.5 390,-84.5 390,-84.5 360,-84.5 360,-84.5 354,-84.5 348,-78.5 348,-72.5 348,-72.5 348,-60.5 348,-60.5 348,-54.5 354,-48.5 360,-48.5"/>
<text text-anchor="middle" x="375" y="-62.8" font-family="Arial" font-size="14.00" fill="#000000">port</text>
</g>
<!-- system_membus_cpu_side_ports&#45;&gt;system_cpu_icache_port -->
<g id="edge2" class="edge">
<title>system_membus_cpu_side_ports&#45;&gt;system_cpu_icache_port</title>
<path fill="none" stroke="black" d="M436.66,-255.79C369.31,-253.75 269.33,-246.68 240,-223 196.89,-188.19 187.53,-117.16 185.53,-84.56"/>
<polygon fill="black" stroke="black" points="436.67,-259.29 446.76,-256.06 436.86,-252.29 436.67,-259.29"/>
</g>
<!-- system_membus_cpu_side_ports&#45;&gt;system_cpu_dcache_port -->
<g id="edge3" class="edge">
<title>system_membus_cpu_side_ports&#45;&gt;system_cpu_dcache_port</title>
<path fill="none" stroke="black" d="M436.73,-254.38C337.61,-250.57 156.39,-241.18 133,-223 89.25,-188.99 80.22,-117.55 78.41,-84.7"/>
<polygon fill="black" stroke="black" points="436.81,-257.89 446.93,-254.77 437.07,-250.89 436.81,-257.89"/>
</g>
<!-- system_membus_cpu_side_ports&#45;&gt;system_cpu_mmu_itb_walker_port -->
<g id="edge4" class="edge">
<title>system_membus_cpu_side_ports&#45;&gt;system_cpu_mmu_itb_walker_port</title>
<path fill="none" stroke="black" d="M546.77,-235.94C552.49,-233.98 558.32,-232.26 564,-231 580.84,-227.27 705.68,-233.95 719,-223 760.59,-188.79 761.59,-117.45 759.6,-84.66"/>
<polygon fill="black" stroke="black" points="545.5,-232.68 537.32,-239.42 547.91,-239.25 545.5,-232.68"/>
</g>
<!-- system_membus_cpu_side_ports&#45;&gt;system_cpu_mmu_dtb_walker_port -->
<g id="edge5" class="edge">
<title>system_membus_cpu_side_ports&#45;&gt;system_cpu_mmu_dtb_walker_port</title>
<path fill="none" stroke="black" d="M551.78,-235.63C555.9,-234.03 560.01,-232.47 564,-231 574.55,-227.11 580.36,-231.25 588,-223 624.23,-183.91 628.08,-116.29 627.72,-84.69"/>
<polygon fill="black" stroke="black" points="550.23,-232.48 542.2,-239.39 552.79,-238.99 550.23,-232.48"/>
</g>
<!-- system_membus_cpu_side_ports&#45;&gt;system_cpu_mmu_stage2_itb_walker_port -->
<g id="edge6" class="edge">
<title>system_membus_cpu_side_ports&#45;&gt;system_cpu_mmu_stage2_itb_walker_port</title>
<path fill="none" stroke="black" d="M501,-229.16C501,-189.61 501,-117.59 501,-84.7"/>
<polygon fill="black" stroke="black" points="497.5,-229.39 501,-239.39 504.5,-229.39 497.5,-229.39"/>
</g>
<!-- system_membus_cpu_side_ports&#45;&gt;system_cpu_mmu_stage2_dtb_walker_port -->
<g id="edge7" class="edge">
<title>system_membus_cpu_side_ports&#45;&gt;system_cpu_mmu_stage2_dtb_walker_port</title>
<path fill="none" stroke="black" d="M437.47,-240.47C428.67,-236 420.45,-230.29 414,-223 378.77,-183.19 374.4,-116.22 374.45,-84.78"/>
<polygon fill="black" stroke="black" points="436.25,-243.76 446.8,-244.7 439.14,-237.39 436.25,-243.76"/>
</g>
<!-- system_membus_mem_side_ports -->
<g id="node9" class="node">
<title>system_membus_mem_side_ports</title>
<path fill="#586070" stroke="#000000" d="M585,-239.5C585,-239.5 679,-239.5 679,-239.5 685,-239.5 691,-245.5 691,-251.5 691,-251.5 691,-263.5 691,-263.5 691,-269.5 685,-275.5 679,-275.5 679,-275.5 585,-275.5 585,-275.5 579,-275.5 573,-269.5 573,-263.5 573,-263.5 573,-251.5 573,-251.5 573,-245.5 579,-239.5 585,-239.5"/>
<text text-anchor="middle" x="632" y="-253.8" font-family="Arial" font-size="14.00" fill="#000000">mem_side_ports</text>
</g>
<!-- system_mem_ctrls_port -->
<g id="node10" class="node">
<title>system_mem_ctrls_port</title>
<path fill="#94918b" stroke="#000000" d="M890,-48.5C890,-48.5 920,-48.5 920,-48.5 926,-48.5 932,-54.5 932,-60.5 932,-60.5 932,-72.5 932,-72.5 932,-78.5 926,-84.5 920,-84.5 920,-84.5 890,-84.5 890,-84.5 884,-84.5 878,-78.5 878,-72.5 878,-72.5 878,-60.5 878,-60.5 878,-54.5 884,-48.5 890,-48.5"/>
<text text-anchor="middle" x="905" y="-62.8" font-family="Arial" font-size="14.00" fill="#000000">port</text>
</g>
<!-- system_membus_mem_side_ports&#45;&gt;system_mem_ctrls_port -->
<g id="edge8" class="edge">
<title>system_membus_mem_side_ports&#45;&gt;system_mem_ctrls_port</title>
<path fill="none" stroke="black" d="M691.02,-254.14C747.15,-250.74 826.41,-242.54 850,-223 888.58,-191.06 900.11,-130.17 903.55,-94.81"/>
<polygon fill="black" stroke="black" points="907.05,-94.97 904.38,-84.71 900.07,-94.39 907.05,-94.97"/>
</g>
</g>
</svg>
