<?xml version="1.0" encoding="UTF-8" standalone="no"?>
<!DOCTYPE svg PUBLIC "-//W3C//DTD SVG 1.1//EN"
 "http://www.w3.org/Graphics/SVG/1.1/DTD/svg11.dtd">
<!-- Generated by graphviz version 2.43.0 (0)
 -->
<!-- Title: G Pages: 1 -->
<svg width="1932pt" height="569pt"
 viewBox="0.00 0.00 1932.00 569.00" xmlns="http://www.w3.org/2000/svg" xmlns:xlink="http://www.w3.org/1999/xlink">
<g id="graph0" class="graph" transform="scale(1 1) rotate(0) translate(4 565)">
<title>G</title>
<polygon fill="white" stroke="transparent" points="-4,4 -4,-565 1928,-565 1928,4 -4,4"/>
<g id="clust1" class="cluster">
<title>cluster_root</title>
<g id="a_clust1"><a xlink:title="eventq_index=0&#10;full_system=false&#10;sim_quantum=0&#10;time_sync_enable=false&#10;time_sync_period=100000000000&#10;time_sync_spin_threshold=100000000">
<path fill="#bab6ae" stroke="#000000" d="M20,-8C20,-8 1904,-8 1904,-8 1910,-8 1916,-14 1916,-20 1916,-20 1916,-541 1916,-541 1916,-547 1910,-553 1904,-553 1904,-553 20,-553 20,-553 14,-553 8,-547 8,-541 8,-541 8,-20 8,-20 8,-14 14,-8 20,-8"/>
<text text-anchor="middle" x="962" y="-537.8" font-family="Arial" font-size="14.00" fill="#000000">root </text>
<text text-anchor="middle" x="962" y="-522.8" font-family="Arial" font-size="14.00" fill="#000000">: Root</text>
</a>
</g>
</g>
<g id="clust2" class="cluster">
<title>cluster_system</title>
<g id="a_clust2"><a xlink:title="auto_unlink_shared_backstore=false&#10;cache_line_size=64&#10;eventq_index=0&#10;exit_on_work_items=false&#10;init_param=0&#10;m5ops_base=0&#10;mem_mode=timing&#10;mem_ranges=0:536870912&#10;memories=system.mem_ctrls.dram&#10;mmap_using_noreserve=false&#10;multi_thread=false&#10;&#10;um_work_ids=16&#10;&#13;eadfile=&#10;&#13;edirect_paths=system.redirect_paths0 system.redirect_paths1 system.redirect_paths2&#10;shadow_rom_ranges=&#10;shared_backstore=&#10;symbolfile=&#10;thermal_components=&#10;thermal_model=Null&#10;work_begin_ckpt_count=0&#10;work_begin_cpu_id_exit=&#45;1&#10;work_begin_exit_count=0&#10;work_cpus_ckpt_count=0&#10;work_end_ckpt_count=0&#10;work_end_exit_count=0&#10;work_item_id=&#45;1&#10;workload=system.workload">
<path fill="#e4e7eb" stroke="#000000" d="M28,-16C28,-16 1896,-16 1896,-16 1902,-16 1908,-22 1908,-28 1908,-28 1908,-495 1908,-495 1908,-501 1902,-507 1896,-507 1896,-507 28,-507 28,-507 22,-507 16,-501 16,-495 16,-495 16,-28 16,-28 16,-22 22,-16 28,-16"/>
<text text-anchor="middle" x="962" y="-491.8" font-family="Arial" font-size="14.00" fill="#000000">system </text>
<text text-anchor="middle" x="962" y="-476.8" font-family="Arial" font-size="14.00" fill="#000000">: System</text>
</a>
</g>
</g>
<g id="clust4" class="cluster">
<title>cluster_system_cpu0</title>
<g id="a_clust4"><a xlink:title="branchPred=Null&#10;checker=Null&#10;clk_domain=system.cpu_clk_domain&#10;cpu_id=0&#10;decoder=system.cpu0.decoder&#10;do_checkpoint_insts=true&#10;do_statistics_insts=true&#10;eventq_index=0&#10;function_trace=false&#10;function_trace_start=0&#10;interrupts=system.cpu0.interrupts&#10;isa=system.cpu0.isa&#10;max_insts_all_threads=0&#10;max_insts_any_thread=0&#10;mmu=system.cpu0.mmu&#10;&#10;umThreads=1&#10;power_gating_on_idle=false&#10;power_model=&#10;power_state=system.cpu0.power_state&#10;progress_interval=0&#10;pwr_gating_latency=300&#10;simpoint_start_insts=&#10;socket_id=0&#10;switched_out=false&#10;syscallRetryLatency=10000&#10;system=system&#10;tracer=system.cpu0.tracer&#10;workload=system.cpu0.workload">
<path fill="#bbc6d9" stroke="#000000" d="M36,-24C36,-24 900,-24 900,-24 906,-24 912,-30 912,-36 912,-36 912,-265 912,-265 912,-271 906,-277 900,-277 900,-277 36,-277 36,-277 30,-277 24,-271 24,-265 24,-265 24,-36 24,-36 24,-30 30,-24 36,-24"/>
<text text-anchor="middle" x="468" y="-261.8" font-family="Arial" font-size="14.00" fill="#000000">cpu0 </text>
<text text-anchor="middle" x="468" y="-246.8" font-family="Arial" font-size="14.00" fill="#000000">: X86TimingSimpleCPU</text>
</a>
</g>
</g>
<g id="clust5" class="cluster">
<title>cluster_system_cpu0_mmu</title>
<g id="a_clust5"><a xlink:title="dtb=system.cpu0.mmu.dtb&#10;eventq_index=0&#10;itb=system.cpu0.mmu.itb">
<path fill="#bab6ae" stroke="#000000" d="M558,-32C558,-32 892,-32 892,-32 898,-32 904,-38 904,-44 904,-44 904,-219 904,-219 904,-225 898,-231 892,-231 892,-231 558,-231 558,-231 552,-231 546,-225 546,-219 546,-219 546,-44 546,-44 546,-38 552,-32 558,-32"/>
<text text-anchor="middle" x="725" y="-215.8" font-family="Arial" font-size="14.00" fill="#000000">mmu </text>
<text text-anchor="middle" x="725" y="-200.8" font-family="Arial" font-size="14.00" fill="#000000">: X86MMU</text>
</a>
</g>
</g>
<g id="clust6" class="cluster">
<title>cluster_system_cpu0_mmu_itb</title>
<g id="a_clust6"><a xlink:title="entry_type=instruction&#10;eventq_index=0&#10;&#10;ext_level=Null&#10;size=64&#10;system=system&#10;walker=system.cpu0.mmu.itb.walker">
<path fill="#9f9c95" stroke="#000000" d="M741,-40C741,-40 884,-40 884,-40 890,-40 896,-46 896,-52 896,-52 896,-173 896,-173 896,-179 890,-185 884,-185 884,-185 741,-185 741,-185 735,-185 729,-179 729,-173 729,-173 729,-52 729,-52 729,-46 735,-40 741,-40"/>
<text text-anchor="middle" x="812.5" y="-169.8" font-family="Arial" font-size="14.00" fill="#000000">itb </text>
<text text-anchor="middle" x="812.5" y="-154.8" font-family="Arial" font-size="14.00" fill="#000000">: X86TLB</text>
</a>
</g>
</g>
<g id="clust7" class="cluster">
<title>cluster_system_cpu0_mmu_itb_walker</title>
<g id="a_clust7"><a xlink:title="clk_domain=system.cpu_clk_domain&#10;eventq_index=0&#10;&#10;um_squash_per_cycle=4&#10;power_model=&#10;power_state=system.cpu0.mmu.itb.walker.power_state&#10;system=system">
<path fill="#84827c" stroke="#000000" d="M749,-48C749,-48 876,-48 876,-48 882,-48 888,-54 888,-60 888,-60 888,-127 888,-127 888,-133 882,-139 876,-139 876,-139 749,-139 749,-139 743,-139 737,-133 737,-127 737,-127 737,-60 737,-60 737,-54 743,-48 749,-48"/>
<text text-anchor="middle" x="812.5" y="-123.8" font-family="Arial" font-size="14.00" fill="#000000">walker </text>
<text text-anchor="middle" x="812.5" y="-108.8" font-family="Arial" font-size="14.00" fill="#000000">: X86PagetableWalker</text>
</a>
</g>
</g>
<g id="clust9" class="cluster">
<title>cluster_system_cpu0_mmu_dtb</title>
<g id="a_clust9"><a xlink:title="entry_type=data&#10;eventq_index=0&#10;&#10;ext_level=Null&#10;size=64&#10;system=system&#10;walker=system.cpu0.mmu.dtb.walker">
<path fill="#9f9c95" stroke="#000000" d="M566,-40C566,-40 709,-40 709,-40 715,-40 721,-46 721,-52 721,-52 721,-173 721,-173 721,-179 715,-185 709,-185 709,-185 566,-185 566,-185 560,-185 554,-179 554,-173 554,-173 554,-52 554,-52 554,-46 560,-40 566,-40"/>
<text text-anchor="middle" x="637.5" y="-169.8" font-family="Arial" font-size="14.00" fill="#000000">dtb </text>
<text text-anchor="middle" x="637.5" y="-154.8" font-family="Arial" font-size="14.00" fill="#000000">: X86TLB</text>
</a>
</g>
</g>
<g id="clust10" class="cluster">
<title>cluster_system_cpu0_mmu_dtb_walker</title>
<g id="a_clust10"><a xlink:title="clk_domain=system.cpu_clk_domain&#10;eventq_index=0&#10;&#10;um_squash_per_cycle=4&#10;power_model=&#10;power_state=system.cpu0.mmu.dtb.walker.power_state&#10;system=system">
<path fill="#84827c" stroke="#000000" d="M574,-48C574,-48 701,-48 701,-48 707,-48 713,-54 713,-60 713,-60 713,-127 713,-127 713,-133 707,-139 701,-139 701,-139 574,-139 574,-139 568,-139 562,-133 562,-127 562,-127 562,-60 562,-60 562,-54 568,-48 574,-48"/>
<text text-anchor="middle" x="637.5" y="-123.8" font-family="Arial" font-size="14.00" fill="#000000">walker </text>
<text text-anchor="middle" x="637.5" y="-108.8" font-family="Arial" font-size="14.00" fill="#000000">: X86PagetableWalker</text>
</a>
</g>
</g>
<g id="clust17" class="cluster">
<title>cluster_system_cpu0_interrupts</title>
<g id="a_clust17"><a xlink:title="clk_domain=system.cpu0.interrupts.clk_domain&#10;eventq_index=0&#10;int_latency=1000&#10;pio_latency=100000&#10;system=system">
<path fill="#bab6ae" stroke="#000000" d="M249,-48C249,-48 526,-48 526,-48 532,-48 538,-54 538,-60 538,-60 538,-127 538,-127 538,-133 532,-139 526,-139 526,-139 249,-139 249,-139 243,-139 237,-133 237,-127 237,-127 237,-60 237,-60 237,-54 243,-48 249,-48"/>
<text text-anchor="middle" x="387.5" y="-123.8" font-family="Arial" font-size="14.00" fill="#000000">interrupts </text>
<text text-anchor="middle" x="387.5" y="-108.8" font-family="Arial" font-size="14.00" fill="#000000">: X86LocalApic</text>
</a>
</g>
</g>
<g id="clust19" class="cluster">
<title>cluster_system_cpu1</title>
<g id="a_clust19"><a xlink:title="branchPred=Null&#10;checker=Null&#10;clk_domain=system.cpu_clk_domain&#10;cpu_id=1&#10;decoder=system.cpu1.decoder&#10;do_checkpoint_insts=true&#10;do_statistics_insts=true&#10;eventq_index=0&#10;function_trace=false&#10;function_trace_start=0&#10;interrupts=system.cpu1.interrupts&#10;isa=system.cpu1.isa&#10;max_insts_all_threads=0&#10;max_insts_any_thread=0&#10;mmu=system.cpu1.mmu&#10;&#10;umThreads=1&#10;power_gating_on_idle=false&#10;power_model=&#10;power_state=system.cpu1.power_state&#10;progress_interval=0&#10;pwr_gating_latency=300&#10;simpoint_start_insts=&#10;socket_id=0&#10;switched_out=false&#10;syscallRetryLatency=10000&#10;system=system&#10;tracer=system.cpu1.tracer&#10;workload=system.cpu0.workload">
<path fill="#bbc6d9" stroke="#000000" d="M932,-24C932,-24 1796,-24 1796,-24 1802,-24 1808,-30 1808,-36 1808,-36 1808,-265 1808,-265 1808,-271 1802,-277 1796,-277 1796,-277 932,-277 932,-277 926,-277 920,-271 920,-265 920,-265 920,-36 920,-36 920,-30 926,-24 932,-24"/>
<text text-anchor="middle" x="1364" y="-261.8" font-family="Arial" font-size="14.00" fill="#000000">cpu1 </text>
<text text-anchor="middle" x="1364" y="-246.8" font-family="Arial" font-size="14.00" fill="#000000">: X86TimingSimpleCPU</text>
</a>
</g>
</g>
<g id="clust20" class="cluster">
<title>cluster_system_cpu1_mmu</title>
<g id="a_clust20"><a xlink:title="dtb=system.cpu1.mmu.dtb&#10;eventq_index=0&#10;itb=system.cpu1.mmu.itb">
<path fill="#bab6ae" stroke="#000000" d="M1454,-32C1454,-32 1788,-32 1788,-32 1794,-32 1800,-38 1800,-44 1800,-44 1800,-219 1800,-219 1800,-225 1794,-231 1788,-231 1788,-231 1454,-231 1454,-231 1448,-231 1442,-225 1442,-219 1442,-219 1442,-44 1442,-44 1442,-38 1448,-32 1454,-32"/>
<text text-anchor="middle" x="1621" y="-215.8" font-family="Arial" font-size="14.00" fill="#000000">mmu </text>
<text text-anchor="middle" x="1621" y="-200.8" font-family="Arial" font-size="14.00" fill="#000000">: X86MMU</text>
</a>
</g>
</g>
<g id="clust21" class="cluster">
<title>cluster_system_cpu1_mmu_itb</title>
<g id="a_clust21"><a xlink:title="entry_type=instruction&#10;eventq_index=0&#10;&#10;ext_level=Null&#10;size=64&#10;system=system&#10;walker=system.cpu1.mmu.itb.walker">
<path fill="#9f9c95" stroke="#000000" d="M1637,-40C1637,-40 1780,-40 1780,-40 1786,-40 1792,-46 1792,-52 1792,-52 1792,-173 1792,-173 1792,-179 1786,-185 1780,-185 1780,-185 1637,-185 1637,-185 1631,-185 1625,-179 1625,-173 1625,-173 1625,-52 1625,-52 1625,-46 1631,-40 1637,-40"/>
<text text-anchor="middle" x="1708.5" y="-169.8" font-family="Arial" font-size="14.00" fill="#000000">itb </text>
<text text-anchor="middle" x="1708.5" y="-154.8" font-family="Arial" font-size="14.00" fill="#000000">: X86TLB</text>
</a>
</g>
</g>
<g id="clust22" class="cluster">
<title>cluster_system_cpu1_mmu_itb_walker</title>
<g id="a_clust22"><a xlink:title="clk_domain=system.cpu_clk_domain&#10;eventq_index=0&#10;&#10;um_squash_per_cycle=4&#10;power_model=&#10;power_state=system.cpu1.mmu.itb.walker.power_state&#10;system=system">
<path fill="#84827c" stroke="#000000" d="M1645,-48C1645,-48 1772,-48 1772,-48 1778,-48 1784,-54 1784,-60 1784,-60 1784,-127 1784,-127 1784,-133 1778,-139 1772,-139 1772,-139 1645,-139 1645,-139 1639,-139 1633,-133 1633,-127 1633,-127 1633,-60 1633,-60 1633,-54 1639,-48 1645,-48"/>
<text text-anchor="middle" x="1708.5" y="-123.8" font-family="Arial" font-size="14.00" fill="#000000">walker </text>
<text text-anchor="middle" x="1708.5" y="-108.8" font-family="Arial" font-size="14.00" fill="#000000">: X86PagetableWalker</text>
</a>
</g>
</g>
<g id="clust24" class="cluster">
<title>cluster_system_cpu1_mmu_dtb</title>
<g id="a_clust24"><a xlink:title="entry_type=data&#10;eventq_index=0&#10;&#10;ext_level=Null&#10;size=64&#10;system=system&#10;walker=system.cpu1.mmu.dtb.walker">
<path fill="#9f9c95" stroke="#000000" d="M1462,-40C1462,-40 1605,-40 1605,-40 1611,-40 1617,-46 1617,-52 1617,-52 1617,-173 1617,-173 1617,-179 1611,-185 1605,-185 1605,-185 1462,-185 1462,-185 1456,-185 1450,-179 1450,-173 1450,-173 1450,-52 1450,-52 1450,-46 1456,-40 1462,-40"/>
<text text-anchor="middle" x="1533.5" y="-169.8" font-family="Arial" font-size="14.00" fill="#000000">dtb </text>
<text text-anchor="middle" x="1533.5" y="-154.8" font-family="Arial" font-size="14.00" fill="#000000">: X86TLB</text>
</a>
</g>
</g>
<g id="clust25" class="cluster">
<title>cluster_system_cpu1_mmu_dtb_walker</title>
<g id="a_clust25"><a xlink:title="clk_domain=system.cpu_clk_domain&#10;eventq_index=0&#10;&#10;um_squash_per_cycle=4&#10;power_model=&#10;power_state=system.cpu1.mmu.dtb.walker.power_state&#10;system=system">
<path fill="#84827c" stroke="#000000" d="M1470,-48C1470,-48 1597,-48 1597,-48 1603,-48 1609,-54 1609,-60 1609,-60 1609,-127 1609,-127 1609,-133 1603,-139 1597,-139 1597,-139 1470,-139 1470,-139 1464,-139 1458,-133 1458,-127 1458,-127 1458,-60 1458,-60 1458,-54 1464,-48 1470,-48"/>
<text text-anchor="middle" x="1533.5" y="-123.8" font-family="Arial" font-size="14.00" fill="#000000">walker </text>
<text text-anchor="middle" x="1533.5" y="-108.8" font-family="Arial" font-size="14.00" fill="#000000">: X86PagetableWalker</text>
</a>
</g>
</g>
<g id="clust31" class="cluster">
<title>cluster_system_cpu1_interrupts</title>
<g id="a_clust31"><a xlink:title="clk_domain=system.cpu1.interrupts.clk_domain&#10;eventq_index=0&#10;int_latency=1000&#10;pio_latency=100000&#10;system=system">
<path fill="#bab6ae" stroke="#000000" d="M1145,-48C1145,-48 1422,-48 1422,-48 1428,-48 1434,-54 1434,-60 1434,-60 1434,-127 1434,-127 1434,-133 1428,-139 1422,-139 1422,-139 1145,-139 1145,-139 1139,-139 1133,-133 1133,-127 1133,-127 1133,-60 1133,-60 1133,-54 1139,-48 1145,-48"/>
<text text-anchor="middle" x="1283.5" y="-123.8" font-family="Arial" font-size="14.00" fill="#000000">interrupts </text>
<text text-anchor="middle" x="1283.5" y="-108.8" font-family="Arial" font-size="14.00" fill="#000000">: X86LocalApic</text>
</a>
</g>
</g>
<g id="clust37" class="cluster">
<title>cluster_system_membus</title>
<g id="a_clust37"><a xlink:title="clk_domain=system.clk_domain&#10;eventq_index=0&#10;forward_latency=4&#10;frontend_latency=3&#10;header_latency=1&#10;max_outstanding_snoops=512&#10;max_routing_table_size=512&#10;point_of_coherency=true&#10;point_of_unification=true&#10;power_model=&#10;power_state=system.membus.power_state&#10;&#13;esponse_latency=2&#10;snoop_filter=system.membus.snoop_filter&#10;snoop_response_latency=4&#10;system=system&#10;use_default_range=false&#10;width=16">
<path fill="#6f798c" stroke="#000000" d="M921,-285C921,-285 1157,-285 1157,-285 1163,-285 1169,-291 1169,-297 1169,-297 1169,-364 1169,-364 1169,-370 1163,-376 1157,-376 1157,-376 921,-376 921,-376 915,-376 909,-370 909,-364 909,-364 909,-297 909,-297 909,-291 915,-285 921,-285"/>
<text text-anchor="middle" x="1039" y="-360.8" font-family="Arial" font-size="14.00" fill="#000000">membus </text>
<text text-anchor="middle" x="1039" y="-345.8" font-family="Arial" font-size="14.00" fill="#000000">: SystemXBar</text>
</a>
</g>
</g>
<g id="clust40" class="cluster">
<title>cluster_system_mem_ctrls</title>
<g id="a_clust40"><a xlink:title="clk_domain=system.clk_domain&#10;command_window=10000&#10;dram=system.mem_ctrls.dram&#10;eventq_index=0&#10;mem_sched_policy=frfcfs&#10;min_reads_per_switch=16&#10;min_writes_per_switch=16&#10;power_model=&#10;power_state=system.mem_ctrls.power_state&#10;qos_policy=Null&#10;qos_priorities=1&#10;qos_priority_escalation=false&#10;qos_q_policy=fifo&#10;qos_requestors= &#160;&#160;&#160;&#160;&#160;&#160;&#160;&#160;&#160;&#160;&#160;&#160;&#160;&#160;&#10;qos_syncro_scheduler=false&#10;qos_turnaround_policy=Null&#10;static_backend_latency=10000&#10;static_frontend_latency=10000&#10;system=system&#10;write_high_thresh_perc=85&#10;write_low_thresh_perc=50">
<path fill="#bab6ae" stroke="#000000" d="M1828,-48C1828,-48 1888,-48 1888,-48 1894,-48 1900,-54 1900,-60 1900,-60 1900,-127 1900,-127 1900,-133 1894,-139 1888,-139 1888,-139 1828,-139 1828,-139 1822,-139 1816,-133 1816,-127 1816,-127 1816,-60 1816,-60 1816,-54 1822,-48 1828,-48"/>
<text text-anchor="middle" x="1858" y="-123.8" font-family="Arial" font-size="14.00" fill="#000000">mem_ctrls </text>
<text text-anchor="middle" x="1858" y="-108.8" font-family="Arial" font-size="14.00" fill="#000000">: MemCtrl</text>
</a>
</g>
</g>
<!-- system_system_port -->
<g id="node1" class="node">
<title>system_system_port</title>
<path fill="#b6b8bc" stroke="#000000" d="M937.5,-424.5C937.5,-424.5 1004.5,-424.5 1004.5,-424.5 1010.5,-424.5 1016.5,-430.5 1016.5,-436.5 1016.5,-436.5 1016.5,-448.5 1016.5,-448.5 1016.5,-454.5 1010.5,-460.5 1004.5,-460.5 1004.5,-460.5 937.5,-460.5 937.5,-460.5 931.5,-460.5 925.5,-454.5 925.5,-448.5 925.5,-448.5 925.5,-436.5 925.5,-436.5 925.5,-430.5 931.5,-424.5 937.5,-424.5"/>
<text text-anchor="middle" x="971" y="-438.8" font-family="Arial" font-size="14.00" fill="#000000">system_port</text>
</g>
<!-- system_membus_cpu_side_ports -->
<g id="node16" class="node">
<title>system_membus_cpu_side_ports</title>
<path fill="#586070" stroke="#000000" d="M929,-293.5C929,-293.5 1013,-293.5 1013,-293.5 1019,-293.5 1025,-299.5 1025,-305.5 1025,-305.5 1025,-317.5 1025,-317.5 1025,-323.5 1019,-329.5 1013,-329.5 1013,-329.5 929,-329.5 929,-329.5 923,-329.5 917,-323.5 917,-317.5 917,-317.5 917,-305.5 917,-305.5 917,-299.5 923,-293.5 929,-293.5"/>
<text text-anchor="middle" x="971" y="-307.8" font-family="Arial" font-size="14.00" fill="#000000">cpu_side_ports</text>
</g>
<!-- system_system_port&#45;&gt;system_membus_cpu_side_ports -->
<g id="edge1" class="edge">
<title>system_system_port&#45;&gt;system_membus_cpu_side_ports</title>
<path fill="none" stroke="black" d="M971,-424.37C971,-402.78 971,-365.41 971,-339.85"/>
<polygon fill="black" stroke="black" points="974.5,-339.7 971,-329.7 967.5,-339.7 974.5,-339.7"/>
</g>
<!-- system_cpu0_icache_port -->
<g id="node2" class="node">
<title>system_cpu0_icache_port</title>
<path fill="#959ead" stroke="#000000" d="M44,-56.5C44,-56.5 106,-56.5 106,-56.5 112,-56.5 118,-62.5 118,-68.5 118,-68.5 118,-80.5 118,-80.5 118,-86.5 112,-92.5 106,-92.5 106,-92.5 44,-92.5 44,-92.5 38,-92.5 32,-86.5 32,-80.5 32,-80.5 32,-68.5 32,-68.5 32,-62.5 38,-56.5 44,-56.5"/>
<text text-anchor="middle" x="75" y="-70.8" font-family="Arial" font-size="14.00" fill="#000000">icache_port</text>
</g>
<!-- system_cpu0_dcache_port -->
<g id="node3" class="node">
<title>system_cpu0_dcache_port</title>
<path fill="#959ead" stroke="#000000" d="M148.5,-56.5C148.5,-56.5 215.5,-56.5 215.5,-56.5 221.5,-56.5 227.5,-62.5 227.5,-68.5 227.5,-68.5 227.5,-80.5 227.5,-80.5 227.5,-86.5 221.5,-92.5 215.5,-92.5 215.5,-92.5 148.5,-92.5 148.5,-92.5 142.5,-92.5 136.5,-86.5 136.5,-80.5 136.5,-80.5 136.5,-68.5 136.5,-68.5 136.5,-62.5 142.5,-56.5 148.5,-56.5"/>
<text text-anchor="middle" x="182" y="-70.8" font-family="Arial" font-size="14.00" fill="#000000">dcache_port</text>
</g>
<!-- system_cpu0_mmu_itb_walker_port -->
<g id="node4" class="node">
<title>system_cpu0_mmu_itb_walker_port</title>
<path fill="#6a6863" stroke="#000000" d="M838,-56.5C838,-56.5 868,-56.5 868,-56.5 874,-56.5 880,-62.5 880,-68.5 880,-68.5 880,-80.5 880,-80.5 880,-86.5 874,-92.5 868,-92.5 868,-92.5 838,-92.5 838,-92.5 832,-92.5 826,-86.5 826,-80.5 826,-80.5 826,-68.5 826,-68.5 826,-62.5 832,-56.5 838,-56.5"/>
<text text-anchor="middle" x="853" y="-70.8" font-family="Arial" font-size="14.00" fill="#000000">port</text>
</g>
<!-- system_cpu0_mmu_dtb_walker_port -->
<g id="node5" class="node">
<title>system_cpu0_mmu_dtb_walker_port</title>
<path fill="#6a6863" stroke="#000000" d="M663,-56.5C663,-56.5 693,-56.5 693,-56.5 699,-56.5 705,-62.5 705,-68.5 705,-68.5 705,-80.5 705,-80.5 705,-86.5 699,-92.5 693,-92.5 693,-92.5 663,-92.5 663,-92.5 657,-92.5 651,-86.5 651,-80.5 651,-80.5 651,-68.5 651,-68.5 651,-62.5 657,-56.5 663,-56.5"/>
<text text-anchor="middle" x="678" y="-70.8" font-family="Arial" font-size="14.00" fill="#000000">port</text>
</g>
<!-- system_cpu0_interrupts_int_requestor -->
<g id="node6" class="node">
<title>system_cpu0_interrupts_int_requestor</title>
<path fill="#94918b" stroke="#000000" d="M257.5,-56.5C257.5,-56.5 328.5,-56.5 328.5,-56.5 334.5,-56.5 340.5,-62.5 340.5,-68.5 340.5,-68.5 340.5,-80.5 340.5,-80.5 340.5,-86.5 334.5,-92.5 328.5,-92.5 328.5,-92.5 257.5,-92.5 257.5,-92.5 251.5,-92.5 245.5,-86.5 245.5,-80.5 245.5,-80.5 245.5,-68.5 245.5,-68.5 245.5,-62.5 251.5,-56.5 257.5,-56.5"/>
<text text-anchor="middle" x="293" y="-70.8" font-family="Arial" font-size="14.00" fill="#000000">int_requestor</text>
</g>
<!-- system_cpu0_interrupts_int_responder -->
<g id="node7" class="node">
<title>system_cpu0_interrupts_int_responder</title>
<path fill="#94918b" stroke="#000000" d="M370.5,-56.5C370.5,-56.5 445.5,-56.5 445.5,-56.5 451.5,-56.5 457.5,-62.5 457.5,-68.5 457.5,-68.5 457.5,-80.5 457.5,-80.5 457.5,-86.5 451.5,-92.5 445.5,-92.5 445.5,-92.5 370.5,-92.5 370.5,-92.5 364.5,-92.5 358.5,-86.5 358.5,-80.5 358.5,-80.5 358.5,-68.5 358.5,-68.5 358.5,-62.5 364.5,-56.5 370.5,-56.5"/>
<text text-anchor="middle" x="408" y="-70.8" font-family="Arial" font-size="14.00" fill="#000000">int_responder</text>
</g>
<!-- system_cpu0_interrupts_pio -->
<g id="node8" class="node">
<title>system_cpu0_interrupts_pio</title>
<path fill="#94918b" stroke="#000000" d="M488,-56.5C488,-56.5 518,-56.5 518,-56.5 524,-56.5 530,-62.5 530,-68.5 530,-68.5 530,-80.5 530,-80.5 530,-86.5 524,-92.5 518,-92.5 518,-92.5 488,-92.5 488,-92.5 482,-92.5 476,-86.5 476,-80.5 476,-80.5 476,-68.5 476,-68.5 476,-62.5 482,-56.5 488,-56.5"/>
<text text-anchor="middle" x="503" y="-70.8" font-family="Arial" font-size="14.00" fill="#000000">pio</text>
</g>
<!-- system_cpu1_icache_port -->
<g id="node9" class="node">
<title>system_cpu1_icache_port</title>
<path fill="#959ead" stroke="#000000" d="M940,-56.5C940,-56.5 1002,-56.5 1002,-56.5 1008,-56.5 1014,-62.5 1014,-68.5 1014,-68.5 1014,-80.5 1014,-80.5 1014,-86.5 1008,-92.5 1002,-92.5 1002,-92.5 940,-92.5 940,-92.5 934,-92.5 928,-86.5 928,-80.5 928,-80.5 928,-68.5 928,-68.5 928,-62.5 934,-56.5 940,-56.5"/>
<text text-anchor="middle" x="971" y="-70.8" font-family="Arial" font-size="14.00" fill="#000000">icache_port</text>
</g>
<!-- system_cpu1_dcache_port -->
<g id="node10" class="node">
<title>system_cpu1_dcache_port</title>
<path fill="#959ead" stroke="#000000" d="M1044.5,-56.5C1044.5,-56.5 1111.5,-56.5 1111.5,-56.5 1117.5,-56.5 1123.5,-62.5 1123.5,-68.5 1123.5,-68.5 1123.5,-80.5 1123.5,-80.5 1123.5,-86.5 1117.5,-92.5 1111.5,-92.5 1111.5,-92.5 1044.5,-92.5 1044.5,-92.5 1038.5,-92.5 1032.5,-86.5 1032.5,-80.5 1032.5,-80.5 1032.5,-68.5 1032.5,-68.5 1032.5,-62.5 1038.5,-56.5 1044.5,-56.5"/>
<text text-anchor="middle" x="1078" y="-70.8" font-family="Arial" font-size="14.00" fill="#000000">dcache_port</text>
</g>
<!-- system_cpu1_mmu_itb_walker_port -->
<g id="node11" class="node">
<title>system_cpu1_mmu_itb_walker_port</title>
<path fill="#6a6863" stroke="#000000" d="M1653,-56.5C1653,-56.5 1683,-56.5 1683,-56.5 1689,-56.5 1695,-62.5 1695,-68.5 1695,-68.5 1695,-80.5 1695,-80.5 1695,-86.5 1689,-92.5 1683,-92.5 1683,-92.5 1653,-92.5 1653,-92.5 1647,-92.5 1641,-86.5 1641,-80.5 1641,-80.5 1641,-68.5 1641,-68.5 1641,-62.5 1647,-56.5 1653,-56.5"/>
<text text-anchor="middle" x="1668" y="-70.8" font-family="Arial" font-size="14.00" fill="#000000">port</text>
</g>
<!-- system_cpu1_mmu_dtb_walker_port -->
<g id="node12" class="node">
<title>system_cpu1_mmu_dtb_walker_port</title>
<path fill="#6a6863" stroke="#000000" d="M1478,-56.5C1478,-56.5 1508,-56.5 1508,-56.5 1514,-56.5 1520,-62.5 1520,-68.5 1520,-68.5 1520,-80.5 1520,-80.5 1520,-86.5 1514,-92.5 1508,-92.5 1508,-92.5 1478,-92.5 1478,-92.5 1472,-92.5 1466,-86.5 1466,-80.5 1466,-80.5 1466,-68.5 1466,-68.5 1466,-62.5 1472,-56.5 1478,-56.5"/>
<text text-anchor="middle" x="1493" y="-70.8" font-family="Arial" font-size="14.00" fill="#000000">port</text>
</g>
<!-- system_cpu1_interrupts_int_requestor -->
<g id="node13" class="node">
<title>system_cpu1_interrupts_int_requestor</title>
<path fill="#94918b" stroke="#000000" d="M1153.5,-56.5C1153.5,-56.5 1224.5,-56.5 1224.5,-56.5 1230.5,-56.5 1236.5,-62.5 1236.5,-68.5 1236.5,-68.5 1236.5,-80.5 1236.5,-80.5 1236.5,-86.5 1230.5,-92.5 1224.5,-92.5 1224.5,-92.5 1153.5,-92.5 1153.5,-92.5 1147.5,-92.5 1141.5,-86.5 1141.5,-80.5 1141.5,-80.5 1141.5,-68.5 1141.5,-68.5 1141.5,-62.5 1147.5,-56.5 1153.5,-56.5"/>
<text text-anchor="middle" x="1189" y="-70.8" font-family="Arial" font-size="14.00" fill="#000000">int_requestor</text>
</g>
<!-- system_cpu1_interrupts_int_responder -->
<g id="node14" class="node">
<title>system_cpu1_interrupts_int_responder</title>
<path fill="#94918b" stroke="#000000" d="M1266.5,-56.5C1266.5,-56.5 1341.5,-56.5 1341.5,-56.5 1347.5,-56.5 1353.5,-62.5 1353.5,-68.5 1353.5,-68.5 1353.5,-80.5 1353.5,-80.5 1353.5,-86.5 1347.5,-92.5 1341.5,-92.5 1341.5,-92.5 1266.5,-92.5 1266.5,-92.5 1260.5,-92.5 1254.5,-86.5 1254.5,-80.5 1254.5,-80.5 1254.5,-68.5 1254.5,-68.5 1254.5,-62.5 1260.5,-56.5 1266.5,-56.5"/>
<text text-anchor="middle" x="1304" y="-70.8" font-family="Arial" font-size="14.00" fill="#000000">int_responder</text>
</g>
<!-- system_cpu1_interrupts_pio -->
<g id="node15" class="node">
<title>system_cpu1_interrupts_pio</title>
<path fill="#94918b" stroke="#000000" d="M1384,-56.5C1384,-56.5 1414,-56.5 1414,-56.5 1420,-56.5 1426,-62.5 1426,-68.5 1426,-68.5 1426,-80.5 1426,-80.5 1426,-86.5 1420,-92.5 1414,-92.5 1414,-92.5 1384,-92.5 1384,-92.5 1378,-92.5 1372,-86.5 1372,-80.5 1372,-80.5 1372,-68.5 1372,-68.5 1372,-62.5 1378,-56.5 1384,-56.5"/>
<text text-anchor="middle" x="1399" y="-70.8" font-family="Arial" font-size="14.00" fill="#000000">pio</text>
</g>
<!-- system_membus_cpu_side_ports&#45;&gt;system_cpu0_icache_port -->
<g id="edge2" class="edge">
<title>system_membus_cpu_side_ports&#45;&gt;system_cpu0_icache_port</title>
<path fill="none" stroke="black" d="M906.47,-310.02C714.45,-308.3 158.21,-301.26 128,-277 71.03,-231.25 70.97,-132.24 73.48,-92.51"/>
<polygon fill="black" stroke="black" points="906.66,-313.52 916.69,-310.11 906.72,-306.52 906.66,-313.52"/>
</g>
<!-- system_membus_cpu_side_ports&#45;&gt;system_cpu0_dcache_port -->
<g id="edge3" class="edge">
<title>system_membus_cpu_side_ports&#45;&gt;system_cpu0_dcache_port</title>
<path fill="none" stroke="black" d="M906.81,-309.65C732.03,-307.06 258.9,-298.12 233,-277 176.65,-231.05 177.41,-132.6 180.29,-92.76"/>
<polygon fill="black" stroke="black" points="906.85,-313.15 916.9,-309.8 906.95,-306.15 906.85,-313.15"/>
</g>
<!-- system_membus_cpu_side_ports&#45;&gt;system_cpu0_mmu_itb_walker_port -->
<g id="edge4" class="edge">
<title>system_membus_cpu_side_ports&#45;&gt;system_cpu0_mmu_itb_walker_port</title>
<path fill="none" stroke="black" d="M926.37,-287.46C922.53,-284.3 918.98,-280.82 916,-277 871.2,-219.67 858,-130.1 854.33,-92.75"/>
<polygon fill="black" stroke="black" points="924.44,-290.38 934.57,-293.48 928.58,-284.74 924.44,-290.38"/>
</g>
<!-- system_membus_cpu_side_ports&#45;&gt;system_cpu0_mmu_dtb_walker_port -->
<g id="edge5" class="edge">
<title>system_membus_cpu_side_ports&#45;&gt;system_cpu0_mmu_dtb_walker_port</title>
<path fill="none" stroke="black" d="M906.91,-309.24C845.37,-306.69 758.14,-299.14 733,-277 678.3,-228.82 675.59,-132.08 676.95,-92.74"/>
<polygon fill="black" stroke="black" points="906.81,-312.73 916.93,-309.62 907.07,-305.74 906.81,-312.73"/>
</g>
<!-- system_membus_cpu_side_ports&#45;&gt;system_cpu0_interrupts_int_requestor -->
<g id="edge6" class="edge">
<title>system_membus_cpu_side_ports&#45;&gt;system_cpu0_interrupts_int_requestor</title>
<path fill="none" stroke="black" d="M906.32,-311.2C756.02,-312.23 392.67,-311.12 350,-277 292.79,-231.25 290.33,-132.68 291.87,-92.79"/>
<polygon fill="black" stroke="black" points="906.8,-314.69 916.77,-311.12 906.75,-307.69 906.8,-314.69"/>
</g>
<!-- system_membus_cpu_side_ports&#45;&gt;system_cpu1_icache_port -->
<g id="edge7" class="edge">
<title>system_membus_cpu_side_ports&#45;&gt;system_cpu1_icache_port</title>
<path fill="none" stroke="black" d="M971,-283.06C971,-234.15 971,-133.23 971,-92.81"/>
<polygon fill="black" stroke="black" points="967.5,-283.22 971,-293.22 974.5,-283.22 967.5,-283.22"/>
</g>
<!-- system_membus_cpu_side_ports&#45;&gt;system_cpu1_dcache_port -->
<g id="edge8" class="edge">
<title>system_membus_cpu_side_ports&#45;&gt;system_cpu1_dcache_port</title>
<path fill="none" stroke="black" d="M1013.48,-287.21C1017.02,-284.11 1020.28,-280.71 1023,-277 1065.55,-218.94 1075.18,-129.77 1077.36,-92.64"/>
<polygon fill="black" stroke="black" points="1011.12,-284.61 1005.35,-293.5 1015.4,-290.14 1011.12,-284.61"/>
</g>
<!-- system_membus_cpu_side_ports&#45;&gt;system_cpu1_mmu_itb_walker_port -->
<g id="edge9" class="edge">
<title>system_membus_cpu_side_ports&#45;&gt;system_cpu1_mmu_itb_walker_port</title>
<path fill="none" stroke="black" d="M1016.28,-289.88C1022.15,-287.89 1028.15,-286.18 1034,-285 1049.77,-281.82 1600.28,-286.85 1613,-277 1670.91,-232.14 1671.67,-132.62 1669.42,-92.63"/>
<polygon fill="black" stroke="black" points="1014.78,-286.7 1006.6,-293.43 1017.19,-293.27 1014.78,-286.7"/>
</g>
<!-- system_membus_cpu_side_ports&#45;&gt;system_cpu1_mmu_dtb_walker_port -->
<g id="edge10" class="edge">
<title>system_membus_cpu_side_ports&#45;&gt;system_cpu1_mmu_dtb_walker_port</title>
<path fill="none" stroke="black" d="M1016.29,-289.91C1022.15,-287.92 1028.15,-286.2 1034,-285 1055.99,-280.49 1420.29,-290.8 1438,-277 1495.77,-231.97 1496.62,-132.54 1494.4,-92.6"/>
<polygon fill="black" stroke="black" points="1014.79,-286.74 1006.61,-293.47 1017.2,-293.31 1014.79,-286.74"/>
</g>
<!-- system_membus_cpu_side_ports&#45;&gt;system_cpu1_interrupts_int_requestor -->
<g id="edge11" class="edge">
<title>system_membus_cpu_side_ports&#45;&gt;system_cpu1_interrupts_int_requestor</title>
<path fill="none" stroke="black" d="M1017.44,-289.86C1022.94,-287.97 1028.54,-286.28 1034,-285 1056.57,-279.7 1120.27,-291.93 1138,-277 1193.62,-230.17 1193.28,-132.22 1190.61,-92.64"/>
<polygon fill="black" stroke="black" points="1015.87,-286.71 1007.69,-293.45 1018.28,-293.28 1015.87,-286.71"/>
</g>
<!-- system_membus_mem_side_ports -->
<g id="node17" class="node">
<title>system_membus_mem_side_ports</title>
<path fill="#586070" stroke="#000000" d="M1055,-293.5C1055,-293.5 1149,-293.5 1149,-293.5 1155,-293.5 1161,-299.5 1161,-305.5 1161,-305.5 1161,-317.5 1161,-317.5 1161,-323.5 1155,-329.5 1149,-329.5 1149,-329.5 1055,-329.5 1055,-329.5 1049,-329.5 1043,-323.5 1043,-317.5 1043,-317.5 1043,-305.5 1043,-305.5 1043,-299.5 1049,-293.5 1055,-293.5"/>
<text text-anchor="middle" x="1102" y="-307.8" font-family="Arial" font-size="14.00" fill="#000000">mem_side_ports</text>
</g>
<!-- system_membus_mem_side_ports&#45;&gt;system_cpu0_interrupts_int_responder -->
<g id="edge13" class="edge">
<title>system_membus_mem_side_ports&#45;&gt;system_cpu0_interrupts_int_responder</title>
<path fill="none" stroke="black" d="M1063.47,-293.43C1054.01,-289.98 1043.79,-286.85 1034,-285 1018.52,-282.08 479.54,-286.53 467,-277 412.85,-235.83 406.29,-147.61 406.72,-102.81"/>
<polygon fill="black" stroke="black" points="410.22,-102.74 406.94,-92.67 403.22,-102.59 410.22,-102.74"/>
</g>
<!-- system_membus_mem_side_ports&#45;&gt;system_cpu0_interrupts_pio -->
<g id="edge12" class="edge">
<title>system_membus_mem_side_ports&#45;&gt;system_cpu0_interrupts_pio</title>
<path fill="none" stroke="black" d="M1063.46,-293.45C1054.01,-290 1043.79,-286.86 1034,-285 1021.01,-282.53 568.44,-285.11 558,-277 504.56,-235.48 499.81,-147.42 501.15,-102.73"/>
<polygon fill="black" stroke="black" points="504.66,-102.76 501.59,-92.62 497.66,-102.46 504.66,-102.76"/>
</g>
<!-- system_membus_mem_side_ports&#45;&gt;system_cpu1_interrupts_int_responder -->
<g id="edge15" class="edge">
<title>system_membus_mem_side_ports&#45;&gt;system_cpu1_interrupts_int_responder</title>
<path fill="none" stroke="black" d="M1161.21,-302.87C1195.24,-297.34 1233.62,-288.75 1246,-277 1294.79,-230.67 1303.36,-146.2 1304.36,-102.81"/>
<polygon fill="black" stroke="black" points="1307.86,-102.76 1304.47,-92.72 1300.86,-102.68 1307.86,-102.76"/>
</g>
<!-- system_membus_mem_side_ports&#45;&gt;system_cpu1_interrupts_pio -->
<g id="edge14" class="edge">
<title>system_membus_mem_side_ports&#45;&gt;system_cpu1_interrupts_pio</title>
<path fill="none" stroke="black" d="M1161.05,-310.76C1229.01,-309.76 1334.88,-303.78 1363,-277 1410.69,-231.6 1408.2,-146.35 1403.19,-102.73"/>
<polygon fill="black" stroke="black" points="1406.64,-102.06 1401.89,-92.59 1399.69,-102.95 1406.64,-102.06"/>
</g>
<!-- system_mem_ctrls_port -->
<g id="node18" class="node">
<title>system_mem_ctrls_port</title>
<path fill="#94918b" stroke="#000000" d="M1836,-56.5C1836,-56.5 1866,-56.5 1866,-56.5 1872,-56.5 1878,-62.5 1878,-68.5 1878,-68.5 1878,-80.5 1878,-80.5 1878,-86.5 1872,-92.5 1866,-92.5 1866,-92.5 1836,-92.5 1836,-92.5 1830,-92.5 1824,-86.5 1824,-80.5 1824,-80.5 1824,-68.5 1824,-68.5 1824,-62.5 1830,-56.5 1836,-56.5"/>
<text text-anchor="middle" x="1851" y="-70.8" font-family="Arial" font-size="14.00" fill="#000000">port</text>
</g>
<!-- system_membus_mem_side_ports&#45;&gt;system_mem_ctrls_port -->
<g id="edge16" class="edge">
<title>system_membus_mem_side_ports&#45;&gt;system_mem_ctrls_port</title>
<path fill="none" stroke="black" d="M1161.26,-309.44C1323.3,-306.29 1763.4,-296.02 1788,-277 1842.11,-235.16 1850.81,-147.24 1851.55,-102.66"/>
<polygon fill="black" stroke="black" points="1855.05,-102.58 1851.59,-92.57 1848.05,-102.55 1855.05,-102.58"/>
</g>
</g>
</svg>
